<svg xmlns="http://www.w3.org/2000/svg" viewBox="0 0 1200 630" width="1200" height="630" role="img" aria-labelledby="t">
  <title id="t">Pământul cald sub copitele Mangaliței</title>
  <rect width="1200" height="630" fill="#F4EDE0"/>

  <g transform="translate(80, 80)">
    <rect x="0" y="0" width="132" height="11" fill="#8B2F1C" fill-opacity="0.65"/>
    <rect x="0" y="0" width="11" height="132" fill="#8B2F1C" fill-opacity="0.65"/>
    <g transform="translate(22, 22)">
      <path d="M26 0 L52 26 L26 52 L0 26 Z" fill="#8B2F1C" fill-opacity="0.65"/>
      <path d="M26 10 L42 26 L26 42 L10 26 Z" fill="#F4EDE0"/>
      <circle cx="26" cy="26" r="3.5" fill="#8B2F1C" fill-opacity="0.65"/>
    </g>
    <g transform="translate(80, 22)">
      <path d="M26 0 L52 26 L26 52 L0 26 Z" fill="#8B2F1C" fill-opacity="0.65"/>
      <path d="M26 10 L42 26 L26 42 L10 26 Z" fill="#F4EDE0"/>
    </g>
    <g transform="translate(22, 80)">
      <path d="M26 0 L52 26 L26 52 L0 26 Z" fill="#8B2F1C" fill-opacity="0.65"/>
      <path d="M26 10 L42 26 L26 42 L10 26 Z" fill="#F4EDE0"/>
    </g>
  </g>

  <g transform="translate(1120, 550) rotate(180)">
    <rect x="0" y="0" width="132" height="11" fill="#8B2F1C" fill-opacity="0.65"/>
    <rect x="0" y="0" width="11" height="132" fill="#8B2F1C" fill-opacity="0.65"/>
    <g transform="translate(22, 22)">
      <path d="M26 0 L52 26 L26 52 L0 26 Z" fill="#8B2F1C" fill-opacity="0.65"/>
      <path d="M26 10 L42 26 L26 42 L10 26 Z" fill="#F4EDE0"/>
      <circle cx="26" cy="26" r="3.5" fill="#8B2F1C" fill-opacity="0.65"/>
    </g>
    <g transform="translate(80, 22)">
      <path d="M26 0 L52 26 L26 52 L0 26 Z" fill="#8B2F1C" fill-opacity="0.65"/>
      <path d="M26 10 L42 26 L26 42 L10 26 Z" fill="#F4EDE0"/>
    </g>
    <g transform="translate(22, 80)">
      <path d="M26 0 L52 26 L26 52 L0 26 Z" fill="#8B2F1C" fill-opacity="0.65"/>
      <path d="M26 10 L42 26 L26 42 L10 26 Z" fill="#F4EDE0"/>
    </g>
  </g>

  <text font-family="Georgia, 'Times New Roman', serif" font-weight="600" fill="#2E1F12" text-anchor="middle">
    <tspan x="600" y="315" font-size="94">Pământul cald sub</tspan>
    <tspan x="600" y="420" font-size="94">copitele Mangaliței</tspan>
  </text>
</svg>